<svg width="23" height="12" viewBox="0 0 23 12" fill="none" xmlns="http://www.w3.org/2000/svg">
<path d="M11.5 3.78906L3.51835 11.5594C3.21424 11.8453 2.80693 12.0035 2.38415 11.9999C1.96137 11.9964 1.55694 11.8313 1.25798 11.5402C0.95902 11.2492 0.78944 10.8555 0.785767 10.4439C0.782093 10.0323 0.944619 9.63577 1.23834 9.33972L10.36 0.459604C10.6624 0.16532 11.0724 -1.20277e-07 11.5 -1.20277e-07C11.9276 -1.20277e-07 12.3376 0.16532 12.64 0.459604L21.7616 9.33972C22.0554 9.63577 22.2179 10.0323 22.2142 10.4439C22.2105 10.8555 22.041 11.2492 21.742 11.5402C21.443 11.8313 21.0386 11.9964 20.6158 11.9999C20.1931 12.0035 19.7857 11.8453 19.4816 11.5594L11.5 3.78906Z" fill="#D13329"/>
<path d="M11.5 3.78906L3.51835 11.5594C3.21424 11.8453 2.80693 12.0035 2.38415 11.9999C1.96137 11.9964 1.55694 11.8313 1.25798 11.5402C0.95902 11.2492 0.78944 10.8555 0.785767 10.4439C0.782093 10.0323 0.944619 9.63577 1.23834 9.33972L10.36 0.459604C10.6624 0.16532 11.0724 -1.20277e-07 11.5 -1.20277e-07C11.9276 -1.20277e-07 12.3376 0.16532 12.64 0.459604L21.7616 9.33972C22.0554 9.63577 22.2179 10.0323 22.2142 10.4439C22.2105 10.8555 22.041 11.2492 21.742 11.5402C21.443 11.8313 21.0386 11.9964 20.6158 11.9999C20.1931 12.0035 19.7857 11.8453 19.4816 11.5594L11.5 3.78906Z" fill="#D13329"/>
<path d="M11.5 3.78906L3.51835 11.5594C3.21424 11.8453 2.80693 12.0035 2.38415 11.9999C1.96137 11.9964 1.55694 11.8313 1.25798 11.5402C0.95902 11.2492 0.78944 10.8555 0.785767 10.4439C0.782093 10.0323 0.944619 9.63577 1.23834 9.33972L10.36 0.459604C10.6624 0.16532 11.0724 -1.20277e-07 11.5 -1.20277e-07C11.9276 -1.20277e-07 12.3376 0.16532 12.64 0.459604L21.7616 9.33972C22.0554 9.63577 22.2179 10.0323 22.2142 10.4439C22.2105 10.8555 22.041 11.2492 21.742 11.5402C21.443 11.8313 21.0386 11.9964 20.6158 11.9999C20.1931 12.0035 19.7857 11.8453 19.4816 11.5594L11.5 3.78906Z" fill="#D13329"/>
</svg>
