<svg width="23" height="23" viewBox="0 0 23 23" fill="none" xmlns="http://www.w3.org/2000/svg">
<path d="M11.4914 2.33789C6.16784 2.33574 1.85602 6.64541 1.85602 11.9647C1.85602 16.171 4.55333 19.7466 8.30976 21.0598C8.81564 21.1868 8.73815 20.8273 8.73815 20.5819V18.9136C5.81696 19.2558 5.69856 17.3227 5.50266 16.9998C5.10657 16.3239 4.17015 16.1517 4.45 15.8288C5.11518 15.4865 5.79328 15.9149 6.57901 17.0752C7.14731 17.9169 8.25595 17.7748 8.8178 17.6349C8.9405 17.129 9.20313 16.6769 9.56478 16.326C6.5381 15.7836 5.27663 13.9366 5.27663 11.7408C5.27663 10.6752 5.62752 9.69576 6.31638 8.90573C5.87723 7.60336 6.35728 6.48827 6.42186 6.32251C7.67257 6.21057 8.97279 7.21803 9.07397 7.29767C9.78435 7.10609 10.5959 7.00491 11.5043 7.00491C12.4171 7.00491 13.2308 7.11039 13.9476 7.30413C14.1909 7.119 15.3964 6.25362 16.5588 6.3591C16.6213 6.52486 17.0906 7.61412 16.6772 8.89927C17.3747 9.69146 17.7299 10.6795 17.7299 11.7473C17.7299 13.9473 16.4598 15.7965 13.4245 16.3303C13.6845 16.586 13.8909 16.8909 14.0318 17.2273C14.1726 17.5636 14.245 17.9246 14.2447 18.2893V20.711C14.2619 20.9048 14.2447 21.0964 14.5676 21.0964C18.38 19.8112 21.1247 16.2098 21.1247 11.9668C21.1247 6.64541 16.8107 2.33789 11.4914 2.33789Z" fill="#182651"/>
</svg>
