<svg width="319" height="319" viewBox="0 0 319 319" fill="none" xmlns="http://www.w3.org/2000/svg">
<circle cx="159.5" cy="159.5" r="159.5" fill="#851D41"/>
<path d="M309.926 212.53C323.316 174.549 321.842 132.908 305.801 95.9679C289.759 59.0279 260.338 29.5236 223.443 13.3784C186.548 -2.7668 144.912 -4.35764 106.893 8.92528C68.8739 22.2082 37.2869 49.3815 18.4735 84.9897C-0.339809 120.598 -4.98666 162.005 5.4659 200.897C15.9185 239.79 40.6966 273.289 74.8257 294.668C108.955 316.048 149.908 323.726 189.464 316.16C229.019 308.595 264.249 286.346 288.079 253.88L159.5 159.5L309.926 212.53Z" fill="#DD5E89"/>
<path d="M309.31 214.247C322.59 177.909 322.209 137.981 308.237 101.903C294.266 65.8237 267.657 36.0531 233.367 18.1354C199.076 0.217731 159.442 -4.62533 121.846 4.50825C84.2503 13.6418 51.2558 36.1293 29.0081 67.7824C6.76041 99.4355 -3.22369 138.096 0.915366 176.564C5.05442 215.031 23.0344 250.683 51.5066 276.878C79.9787 303.074 117.002 318.028 155.68 318.954C194.359 319.881 232.055 306.717 261.749 281.915L159.5 159.5L309.31 214.247Z" fill="#CDAB04"/>
<path d="M309.764 212.988C321.497 180.027 322.066 144.123 311.386 110.807C300.705 77.4903 279.366 48.6101 250.656 28.6149C221.946 8.61974 187.458 -1.38094 152.505 0.153468C117.552 1.68788 84.073 14.6722 57.2257 37.1063C30.3784 59.5404 11.6521 90.1795 3.93178 124.304C-3.7886 158.428 -0.0747819 194.144 14.5011 225.95C29.077 257.756 53.7063 283.887 84.5948 300.317C115.483 316.748 150.917 322.566 185.438 316.877L159.5 159.5L309.764 212.988Z" fill="#004854"/>
<path d="M309.847 212.754C318.605 188.029 321.13 161.527 317.198 135.593C313.267 109.659 303 85.0955 287.308 64.0774C271.615 43.0593 250.982 26.2357 227.234 15.0967C203.487 3.95774 177.359 -1.15275 151.165 0.217923C124.971 1.5886 99.5193 9.39814 77.0643 22.9548C54.6093 36.5114 35.8442 55.3967 22.4312 77.9378C9.01821 100.479 1.37135 125.98 0.167951 152.182C-1.03544 178.385 4.24178 204.479 15.5322 228.155L159.5 159.5L309.847 212.754Z" fill="#F27A22"/>
<path d="M90.5862 15.6559C119.187 1.95371 151.223 -2.91144 182.602 1.68188C213.981 6.2752 243.278 20.1185 266.751 41.4433C290.225 62.7681 306.808 90.6063 314.383 121.402C321.958 152.197 320.181 184.552 309.279 214.332L159.5 159.5L90.5862 15.6559Z" fill="#47ACB1"/>
</svg>
