<svg width="574" height="288" viewBox="0 0 574 288" fill="none" xmlns="http://www.w3.org/2000/svg">
<rect x="0.5" y="0.5" width="573" height="287" rx="7.5" stroke="#B8B8B8"/>
<path d="M444 288C444 267.382 439.939 246.967 432.049 227.919C424.159 208.871 412.595 191.563 398.016 176.984C383.437 162.405 366.129 150.841 347.081 142.951C328.033 135.061 307.618 131 287 131C266.382 131 245.967 135.061 226.919 142.951C207.871 150.841 190.563 162.405 175.984 176.984C161.405 191.563 149.841 208.871 141.951 227.919C134.061 246.967 130 267.382 130 288H159.96C159.96 271.317 163.246 254.797 169.63 239.384C176.015 223.971 185.372 209.966 197.169 198.169C208.966 186.372 222.971 177.015 238.384 170.63C253.797 164.246 270.317 160.96 287 160.96C303.683 160.96 320.203 164.246 335.616 170.63C351.029 177.015 365.034 186.372 376.831 198.169C388.628 209.966 397.985 223.971 404.37 239.384C410.754 254.797 414.04 271.317 414.04 288H444Z" fill="#438FFE" fill-opacity="0.6"/>
<path d="M444 288C444 251.025 430.95 215.237 407.15 186.94C383.349 158.644 350.326 139.656 313.898 133.321L308.765 162.838C338.242 167.964 364.963 183.329 384.222 206.225C403.481 229.122 414.04 258.081 414.04 288H444Z" fill="#438FFE" fill-opacity="0.8"/>
</svg>
