<svg width="314" height="314" viewBox="0 0 314 314" fill="none" xmlns="http://www.w3.org/2000/svg">
<path d="M314 157C314 136.382 309.939 115.967 302.049 96.9187C294.159 77.8706 282.595 60.563 268.016 45.9842C253.437 31.4054 236.129 19.8409 217.081 11.9509C198.033 4.06092 177.618 -9.01221e-07 157 0C136.382 9.01221e-07 115.967 4.06093 96.9187 11.9509C77.8706 19.8409 60.563 31.4054 45.9842 45.9842C31.4054 60.563 19.8409 77.8706 11.9509 96.9187C4.06092 115.967 -1.80244e-06 136.382 0 157H29.9598C29.9598 140.317 33.2458 123.797 39.6302 108.384C46.0145 92.9706 55.3723 78.9658 67.169 67.169C78.9658 55.3723 92.9706 46.0146 108.384 39.6302C123.797 33.2458 140.317 29.9598 157 29.9598C173.683 29.9598 190.203 33.2458 205.616 39.6302C221.029 46.0146 235.034 55.3723 246.831 67.169C258.628 78.9658 267.985 92.9706 274.37 108.384C280.754 123.797 284.04 140.317 284.04 157H314Z" fill="#438FFE" fill-opacity="0.6"/>
<path d="M314 157C314 120.025 300.95 84.2368 277.15 55.9405C253.349 27.6442 220.326 8.65592 183.898 2.32127L178.765 31.8381C208.242 36.964 234.963 52.3288 254.222 75.2254C273.481 98.1219 284.04 127.081 284.04 157H314Z" fill="#438FFE" fill-opacity="0.8"/>
</svg>
