<svg width="23" height="23" viewBox="0 0 23 23" fill="none" xmlns="http://www.w3.org/2000/svg">
<g clip-path="url(#clip0_21_57)">
<path d="M19.1516 19.4777H15.8855V14.3627C15.8855 13.143 15.8637 11.5728 14.1868 11.5728C12.4856 11.5728 12.2253 12.9018 12.2253 14.2739V19.4774H8.95926V8.95883H12.0947V10.3963H12.1386C12.4524 9.85977 12.9058 9.41839 13.4506 9.11917C13.9954 8.81996 14.6111 8.6741 15.2323 8.69715C18.5427 8.69715 19.153 10.8746 19.153 13.7074L19.1516 19.4777ZM5.27387 7.5211C4.22706 7.52127 3.3783 6.67277 3.37813 5.62596C3.37796 4.57915 4.22637 3.73039 5.27318 3.73022C6.31998 3.72996 7.16874 4.57846 7.16892 5.62527C7.16901 6.12797 6.96941 6.61011 6.61402 6.96565C6.25863 7.32118 5.77656 7.52098 5.27387 7.5211ZM6.90698 19.4778H3.6374V8.95883H6.90689V19.4777L6.90698 19.4778ZM20.7799 0.696917H1.99619C1.10842 0.686928 0.380387 1.39809 0.369537 2.28586V21.1479C0.380042 22.0361 1.10799 22.748 1.9961 22.7387H20.7799C21.6699 22.7497 22.4007 22.0378 22.413 21.1479V2.28439C22.4004 1.3949 21.6695 0.683829 20.7799 0.695453" fill="#182651"/>
</g>
<defs>
<clipPath id="clip0_21_57">
<rect width="22.0435" height="22.0435" fill="white" transform="translate(0.369629 0.695312)"/>
</clipPath>
</defs>
</svg>
