<svg width="32" height="32" viewBox="0 0 32 32" fill="none" xmlns="http://www.w3.org/2000/svg">
<path d="M5.33329 28.0003C4.59996 28.0003 3.9724 27.7394 3.45063 27.2177C2.92796 26.695 2.66663 26.067 2.66663 25.3337V10.667C2.66663 9.93366 2.92796 9.3061 3.45063 8.78433C3.9724 8.26166 4.59996 8.00033 5.33329 8.00033H10.6666V5.33366C10.6666 4.60033 10.928 3.97233 11.4506 3.44966C11.9724 2.92788 12.6 2.66699 13.3333 2.66699H18.6666C19.4 2.66699 20.028 2.92788 20.5506 3.44966C21.0724 3.97233 21.3333 4.60033 21.3333 5.33366V8.00033H26.6666C27.4 8.00033 28.028 8.26166 28.5506 8.78433C29.0724 9.3061 29.3333 9.93366 29.3333 10.667V25.3337C29.3333 26.067 29.0724 26.695 28.5506 27.2177C28.028 27.7394 27.4 28.0003 26.6666 28.0003H5.33329ZM5.33329 25.3337H26.6666V10.667H5.33329V25.3337ZM13.3333 8.00033H18.6666V5.33366H13.3333V8.00033ZM5.33329 25.3337V10.667V25.3337Z" fill="#314CA3"/>
</svg>
