<svg width="32" height="32" viewBox="0 0 32 32" fill="none" xmlns="http://www.w3.org/2000/svg">
<g id="material-symbols:work-outline">
<path id="Vector" d="M5.33329 28C4.59996 28 3.9724 27.7391 3.45063 27.2174C2.92796 26.6947 2.66663 26.0667 2.66663 25.3334V10.6667C2.66663 9.93335 2.92796 9.3058 3.45063 8.78402C3.9724 8.26135 4.59996 8.00002 5.33329 8.00002H10.6666V5.33335C10.6666 4.60002 10.928 3.97202 11.4506 3.44935C11.9724 2.92758 12.6 2.66669 13.3333 2.66669H18.6666C19.4 2.66669 20.028 2.92758 20.5506 3.44935C21.0724 3.97202 21.3333 4.60002 21.3333 5.33335V8.00002H26.6666C27.4 8.00002 28.028 8.26135 28.5506 8.78402C29.0724 9.3058 29.3333 9.93335 29.3333 10.6667V25.3334C29.3333 26.0667 29.0724 26.6947 28.5506 27.2174C28.028 27.7391 27.4 28 26.6666 28H5.33329ZM5.33329 25.3334H26.6666V10.6667H5.33329V25.3334ZM13.3333 8.00002H18.6666V5.33335H13.3333V8.00002ZM5.33329 25.3334V10.6667V25.3334Z" fill="#9C9C9C"/>
</g>
</svg>
