<svg width="32" height="32" viewBox="0 0 32 32" fill="none" xmlns="http://www.w3.org/2000/svg">
<path d="M9.33333 24C7.86667 24 6.61111 23.4778 5.56667 22.4333C4.52222 21.3889 4 20.1333 4 18.6667C4 17.2 4.52222 15.9444 5.56667 14.9C6.61111 13.8556 7.86667 13.3333 9.33333 13.3333C10.8 13.3333 12.0556 13.8556 13.1 14.9C14.1444 15.9444 14.6667 17.2 14.6667 18.6667C14.6667 20.1333 14.1444 21.3889 13.1 22.4333C12.0556 23.4778 10.8 24 9.33333 24ZM9.33333 21.3333C10.0667 21.3333 10.6942 21.072 11.216 20.5493C11.7387 20.0276 12 19.4 12 18.6667C12 17.9333 11.7387 17.3053 11.216 16.7827C10.6942 16.2609 10.0667 16 9.33333 16C8.6 16 7.97244 16.2609 7.45067 16.7827C6.928 17.3053 6.66667 17.9333 6.66667 18.6667C6.66667 19.4 6.928 20.0276 7.45067 20.5493C7.97244 21.072 8.6 21.3333 9.33333 21.3333ZM22 18.6667C19.9556 18.6667 18.2222 17.9556 16.8 16.5333C15.3778 15.1111 14.6667 13.3778 14.6667 11.3333C14.6667 9.28889 15.3778 7.55556 16.8 6.13333C18.2222 4.71111 19.9556 4 22 4C24.0444 4 25.7778 4.71111 27.2 6.13333C28.6222 7.55556 29.3333 9.28889 29.3333 11.3333C29.3333 13.3778 28.6222 15.1111 27.2 16.5333C25.7778 17.9556 24.0444 18.6667 22 18.6667ZM19.3333 28C18.2222 28 17.2778 27.6111 16.5 26.8333C15.7222 26.0556 15.3333 25.1111 15.3333 24C15.3333 22.8889 15.7222 21.9444 16.5 21.1667C17.2778 20.3889 18.2222 20 19.3333 20C20.4444 20 21.3889 20.3889 22.1667 21.1667C22.9444 21.9444 23.3333 22.8889 23.3333 24C23.3333 25.1111 22.9444 26.0556 22.1667 26.8333C21.3889 27.6111 20.4444 28 19.3333 28ZM22 16C23.3111 16 24.4169 15.5502 25.3173 14.6507C26.2169 13.7502 26.6667 12.6444 26.6667 11.3333C26.6667 10.0222 26.2169 8.91644 25.3173 8.016C24.4169 7.11644 23.3111 6.66667 22 6.66667C20.6889 6.66667 19.5831 7.11644 18.6827 8.016C17.7831 8.91644 17.3333 10.0222 17.3333 11.3333C17.3333 12.6444 17.7831 13.7502 18.6827 14.6507C19.5831 15.5502 20.6889 16 22 16ZM19.3333 25.3333C19.7111 25.3333 20.028 25.2053 20.284 24.9493C20.5391 24.6942 20.6667 24.3778 20.6667 24C20.6667 23.6222 20.5391 23.3058 20.284 23.0507C20.028 22.7947 19.7111 22.6667 19.3333 22.6667C18.9556 22.6667 18.6391 22.7947 18.384 23.0507C18.128 23.3058 18 23.6222 18 24C18 24.3778 18.128 24.6942 18.384 24.9493C18.6391 25.2053 18.9556 25.3333 19.3333 25.3333Z" fill="#9C9C9C"/>
</svg>
