<svg width="32" height="32" viewBox="0 0 32 32" fill="none" xmlns="http://www.w3.org/2000/svg">
<path d="M5.33268 27.9993C4.59935 27.9993 3.97179 27.7385 3.45002 27.2167C2.92735 26.694 2.66602 26.066 2.66602 25.3327V10.666C2.66602 9.93268 2.92735 9.30513 3.45002 8.78335C3.97179 8.26068 4.59935 7.99935 5.33268 7.99935H10.666V5.33268C10.666 4.59935 10.9273 3.97135 11.45 3.44868C11.9718 2.9269 12.5993 2.66602 13.3327 2.66602H18.666C19.3993 2.66602 20.0273 2.9269 20.55 3.44868C21.0718 3.97135 21.3327 4.59935 21.3327 5.33268V7.99935H26.666C27.3993 7.99935 28.0273 8.26068 28.55 8.78335C29.0718 9.30513 29.3327 9.93268 29.3327 10.666V25.3327C29.3327 26.066 29.0718 26.694 28.55 27.2167C28.0273 27.7385 27.3993 27.9993 26.666 27.9993H5.33268ZM5.33268 25.3327H26.666V10.666H5.33268V25.3327ZM13.3327 7.99935H18.666V5.33268H13.3327V7.99935ZM5.33268 25.3327V10.666V25.3327Z" fill="#9C9C9C"/>
</svg>
