<svg width="24" height="24" viewBox="0 0 24 24" fill="none" xmlns="http://www.w3.org/2000/svg">
<path d="M11.0024 20C10.7198 20 10.4831 19.904 10.2922 19.712C10.1007 19.5207 10.005 19.2833 10.005 19V13L4.21985 5.6C3.97049 5.26667 3.93325 4.91667 4.10814 4.55C4.28236 4.18333 4.58558 4 5.0178 4H18.9819C19.4141 4 19.7176 4.18333 19.8925 4.55C20.0667 4.91667 20.0292 5.26667 19.7798 5.6L13.9947 13V19C13.9947 19.2833 13.8993 19.5207 13.7084 19.712C13.5169 19.904 13.2799 20 12.9973 20H11.0024ZM11.9998 12.3L16.9371 6H7.06253L11.9998 12.3Z" fill="#605E5C"/>
</svg>
